<svg width="13" height="15" viewBox="0 0 13 15" fill="none" xmlns="http://www.w3.org/2000/svg">
<path d="M6.14062 0C6.71875 0 7.11719 0.398438 7.11719 0.992188V10.25L7.04688 11.9453L8.89844 9.85156L10.6641 8.10156C10.8438 7.92969 11.0781 7.8125 11.3594 7.8125C11.8906 7.8125 12.2891 8.20312 12.2891 8.75C12.2891 9.00781 12.1875 9.25 11.9844 9.45312L6.86719 14.5781C6.67969 14.7734 6.40625 14.8828 6.14062 14.8828C5.875 14.8828 5.60938 14.7734 5.42188 14.5781L0.304688 9.45312C0.101562 9.25 0 9.00781 0 8.75C0 8.20312 0.398438 7.8125 0.929688 7.8125C1.21094 7.8125 1.44531 7.92969 1.625 8.10156L3.38281 9.85156L5.23438 11.9453L5.17188 10.25V0.992188C5.17188 0.398438 5.5625 0 6.14062 0Z" fill="#F5F7FA"/>
</svg>
