<svg width="31" height="31" viewBox="0 0 31 31" fill="none" xmlns="http://www.w3.org/2000/svg">
<path d="M21.9262 0C25.2724 0 28.1628 2.58549 28.4672 5.93164L30.4438 23.2725C30.5958 25.0976 29.9877 26.9231 28.7709 28.292C27.5541 29.6607 25.7288 30.4209 23.9037 30.4209H6.5639C4.73885 30.4209 3.06558 29.6607 1.69672 28.292C0.479971 26.9232 -0.129084 25.0976 0.0228882 23.2725L2.15277 5.93164C2.45717 2.58552 5.19527 0 8.54144 0H21.9262ZM8.54144 3.04199C6.71619 3.04199 5.34687 4.41106 5.19476 6.23633L3.06488 23.5762C2.91278 24.4888 3.36955 25.4016 3.97797 26.1621C4.58639 26.9226 5.49921 27.2266 6.5639 27.2266H24.0561C24.9685 27.2264 25.8807 26.7703 26.6411 26.1621C27.2495 25.4016 27.5541 24.4888 27.5541 23.5762L25.2729 6.23633C25.1208 4.41106 23.7515 3.04199 21.9262 3.04199H8.54144ZM21.4702 5.01953C22.3828 5.01953 22.9916 5.62838 22.9916 6.54102C22.9915 10.7999 19.4927 14.2979 15.2338 14.2979C10.975 14.2978 7.47713 10.7998 7.47699 6.54102C7.47699 5.62845 8.08497 5.01961 8.9975 5.01953C9.91013 5.01953 10.519 5.62838 10.519 6.54102C10.5191 9.12664 12.6482 11.2558 15.2338 11.2559C17.8195 11.2559 19.9495 9.12669 19.9496 6.54102C19.9496 5.62843 20.5576 5.0196 21.4702 5.01953Z" fill="#C0C4CB"/>
</svg>
