<svg width="36" height="31" viewBox="0 0 36 31" fill="none" xmlns="http://www.w3.org/2000/svg">
<path d="M25.5895 0C22.5474 0 19.8632 1.23091 17.8947 3.51689C15.9263 1.23091 13.2421 0 10.2 0C4.65263 0 0 4.57195 0 10.0231C0 10.3748 0 10.7265 0 11.0782C0.715789 19.3429 9.66316 26.2008 14.8526 29.5418C15.7474 30.0694 16.8211 30.4211 17.8947 30.4211C18.9684 30.4211 20.0421 30.0694 20.9368 29.5418C26.1263 26.2008 35.0737 19.3429 35.7895 11.254C35.7895 10.9023 35.7895 10.5506 35.7895 10.1989C35.7895 4.57195 31.1368 0 25.5895 0ZM32.2105 10.7265C31.6737 17.7603 22.7263 24.0906 18.9684 26.3766C18.2526 26.7283 17.5368 26.7283 16.8211 26.3766C13.0632 23.9148 4.29474 17.5844 3.57895 10.5506C3.57895 10.5506 3.57895 10.1989 3.57895 10.0231C3.57895 6.50629 6.62105 3.51689 10.2 3.51689C12.8842 3.51689 15.2105 5.09949 16.2842 7.38552C16.4632 8.08878 17.1789 8.44047 17.8947 8.44047C18.6105 8.44047 19.3263 8.08878 19.5053 7.38552C20.5789 5.09949 22.9053 3.51689 25.5895 3.51689C29.1684 3.51689 32.2105 6.50629 32.2105 10.0231C32.2105 10.1989 32.2105 10.5506 32.2105 10.7265Z" fill="#C0C4CB"/>
</svg>
