<svg width="33" height="33" viewBox="0 0 33 33" fill="none" xmlns="http://www.w3.org/2000/svg">
<path fill-rule="evenodd" clip-rule="evenodd" d="M17.3017 3.60017C16.5453 3.09468 15.6653 3.09468 14.9088 3.60017L14.8814 3.61811L4.92984 9.97988C3.83019 10.6814 3.22105 11.892 3.22105 13.1052V26.6962C3.22105 27.9794 4.23449 28.9895 5.50463 28.9895H26.7059C27.976 28.9895 28.9895 27.9794 28.9895 26.6962V13.1052C28.9895 11.8505 28.3258 10.7258 27.2493 9.95988L17.3291 3.61811L17.3017 3.60017ZM19.0767 0.912315C17.2444 -0.304116 14.9661 -0.3041 13.1338 0.912331L3.19619 7.26518C3.19596 7.26533 3.19641 7.26504 3.19619 7.26518C1.12328 8.58792 0 10.8484 0 13.1052V26.6962C0 29.7506 2.44798 32.2105 5.50463 32.2105H26.7059C29.7625 32.2105 32.2105 29.7506 32.2105 26.6962V13.1052C32.2105 10.6106 30.8659 8.56256 29.0732 7.30462C29.0544 7.29134 29.035 7.27845 29.0156 7.266L19.0767 0.912315Z" fill="#191919"/>
</svg>
