<svg width="34" height="34" viewBox="0 0 34 34" fill="none" xmlns="http://www.w3.org/2000/svg">
<path d="M17 0C26.35 6.50276e-08 34 7.65 34 17C34 26.35 26.35 34 17 34C7.65 34 6.50235e-08 26.35 0 17C0 7.65 7.65 0 17 0ZM17 3.40039C9.52 3.40039 3.40039 9.52 3.40039 17C3.40039 24.48 9.52 30.5996 17 30.5996C24.48 30.5996 30.5996 24.48 30.5996 17C30.5996 9.52 24.48 3.40039 17 3.40039ZM17.001 7.64941C21.0809 7.64947 24.3105 10.88 24.3105 14.96C24.3105 16.9999 23.4605 18.6996 22.2705 20.0596C23.8005 20.7396 25.1606 21.5903 26.3506 22.7803C27.0305 23.4603 27.0306 24.4802 26.3506 25.1602C25.6706 25.8398 24.6506 25.84 23.9707 25.1602C22.1007 23.2902 19.5509 22.2696 17.001 22.2695C14.281 22.2695 11.9012 23.2902 10.0312 25.1602C9.69125 25.5002 9.35082 25.6699 8.84082 25.6699C8.50082 25.6699 7.99039 25.5001 7.65039 25.1602C6.97061 24.4803 6.97087 23.4603 7.65039 22.7803C8.84035 21.5903 10.2006 20.7396 11.7305 20.0596C10.5407 18.6997 9.69047 16.9997 9.69043 14.96C9.69043 10.88 12.921 7.64941 17.001 7.64941ZM17.001 11.0498C14.791 11.0498 13.0908 12.75 13.0908 14.96C13.0909 17.1699 14.791 18.8701 17.001 18.8701C19.2109 18.8701 20.9111 17.1699 20.9111 14.96C20.9111 12.75 19.2109 11.0499 17.001 11.0498Z" fill="#C0C4CB"/>
</svg>
