<svg width="28" height="22" viewBox="0 0 28 22" fill="none" xmlns="http://www.w3.org/2000/svg">
  <path d="M6.29648 0.404598C6.8124 -0.138719 7.62144 -0.127159 8.13735 0.404598L14.0352 6.35796C14.2814 6.60072 14.4221 6.94752 14.4221 7.25964C14.4221 7.97635 13.9179 8.46187 13.2027 8.46187C12.8626 8.46187 12.5695 8.34627 12.3467 8.11507L9.93132 5.64125L8.34841 3.84946L8.44221 6.32328V20.7732C8.44221 21.4899 7.9263 21.9985 7.21106 21.9985C6.49581 21.9985 5.9799 21.4899 5.9799 20.7732V6.32328L6.0737 3.84946L4.50251 5.64125L2.07538 8.11507C1.8526 8.34627 1.57119 8.46187 1.21943 8.46187C0.504188 8.46187 0 7.97635 0 7.25964C0 6.94752 0.152429 6.60072 0.386935 6.35796L6.29648 0.404598ZM21.7035 21.6055C21.1876 22.1373 20.3786 22.1257 19.8626 21.6055L13.9531 15.629C13.7186 15.3978 13.5779 15.051 13.5779 14.7389C13.5779 14.0222 14.0821 13.5367 14.7973 13.5367C15.1374 13.5367 15.4188 13.6523 15.6533 13.8835L18.0687 16.3457L19.6399 18.1491L19.5461 15.6753V1.22535C19.5461 0.520197 20.0737 0 20.7889 0C21.5042 0 22.0201 0.520197 22.0201 1.22535V15.6753L21.9263 18.1491L23.4975 16.3457L25.9129 13.8835C26.1474 13.6523 26.4288 13.5367 26.7806 13.5367C27.4958 13.5367 28 14.0222 28 14.7389C28 15.051 27.8476 15.3978 27.6131 15.629L21.7035 21.6055Z" fill="black" />
</svg>