<svg width="32" height="29" viewBox="0 0 32 29" fill="none" xmlns="http://www.w3.org/2000/svg">
<path d="M31.6046 4.94819L30.8065 2.71352C30.3276 1.11733 28.7314 0 27.1352 0H4.78857C3.19238 0 1.59619 1.11733 1.11733 2.71352L0.319238 4.94819C-0.319238 7.02324 -1.26854e-07 9.09829 1.27695 10.8541C1.59619 11.4926 2.23467 11.9714 2.71352 12.4503V22.6659C2.71352 26.1775 5.58667 28.8911 8.93867 28.8911H12.4503C13.408 28.8911 14.0465 28.2526 14.0465 27.2949V22.6659C14.0465 21.5486 14.8446 20.7505 15.9619 20.7505C17.0792 20.7505 17.8773 21.5486 17.8773 22.6659V27.2949C17.8773 28.2526 18.5158 28.8911 19.4735 28.8911H22.9851C26.4968 28.8911 29.2103 26.0179 29.2103 22.6659V17.5581C29.2103 16.6004 28.5718 15.9619 27.6141 15.9619C26.6564 15.9619 26.0179 16.6004 26.0179 17.5581V22.5063C26.0179 24.2621 24.5813 25.5391 22.9851 25.5391H21.0697V22.5063C21.0697 19.6331 18.8351 17.3985 15.9619 17.3985C13.0888 17.3985 10.8541 19.6331 10.8541 22.5063V25.5391H8.93867C7.18286 25.5391 5.90591 24.1025 5.90591 22.5063V13.5676C6.22514 13.5676 6.38476 13.5676 6.704 13.5676C8.45981 13.5676 10.2156 12.7695 11.333 11.4926C12.4503 12.9291 14.2061 13.7272 15.9619 13.7272C17.7177 13.7272 19.4735 12.9291 20.5909 11.6522C21.7082 12.9291 23.464 13.7272 25.2198 13.7272C27.4545 13.7272 29.3699 12.7695 30.6469 11.0137C31.9238 9.09829 32.2431 7.02324 31.6046 4.94819ZM28.093 9.09829C27.4545 10.056 26.4968 10.5349 25.3794 10.5349C23.9429 10.5349 22.6659 9.57715 22.3467 8.30019C22.1871 7.5021 21.389 7.02324 20.5909 7.02324C19.7928 7.02324 19.1543 7.5021 18.8351 8.30019C18.5158 9.57715 17.2389 10.5349 15.9619 10.5349C14.685 10.5349 13.408 9.57715 13.0888 8.30019C12.7695 7.5021 12.1311 7.02324 11.333 7.02324C10.5349 7.02324 9.73676 7.5021 9.57714 8.30019C9.25791 9.57715 7.98095 10.5349 6.704 10.5349C5.58667 10.5349 4.62895 10.056 3.83086 9.09829C3.19238 8.14057 3.03276 7.02324 3.352 5.90591L4.1501 3.67124C4.30972 3.352 4.46933 3.19238 4.78857 3.19238H27.1352C27.4545 3.19238 27.7737 3.352 27.7737 3.67124L28.5718 5.90591C28.8911 7.02324 28.7314 8.14057 28.093 9.09829Z" fill="#C0C4CB"/>
</svg>
